<?xml version="1.0" encoding="UTF-8" standalone="no"?> <svg width="64" height="64" viewBox="0 0 64 64" fill="none" xmlns="http://www.w3.org/2000/svg">
<path d="M32 2.75C26.2149 2.75 20.5597 4.46548 15.7496 7.67951C10.9394 10.8935 7.1904 15.4618 4.97654 20.8065C2.76267 26.1512 2.18343 32.0324 3.31204 37.7064C4.44066 43.3803 7.22645 48.5922 11.3171 52.6829C15.4078 56.7736 20.6197 59.5594 26.2936 60.688C31.9676 61.8166 37.8488 61.2373 43.1935 59.0235C48.5382 56.8096 53.1065 53.0606 56.3205 48.2504C59.5345 43.4403 61.25 37.7851 61.25 32C61.2421 24.2449 58.1578 16.8096 52.6741 11.3259C47.1904 5.84218 39.7552 2.75794 32 2.75V2.75ZM32 58.75C26.7094 58.75 21.5375 57.1811 17.1385 54.2418C12.7395 51.3025 9.31088 47.1247 7.28624 42.2368C5.26159 37.3489 4.73185 31.9703 5.76401 26.7813C6.79616 21.5923 9.34385 16.8259 13.0849 13.0849C16.826 9.34384 21.5924 6.79615 26.7813 5.76399C31.9703 4.73184 37.3489 5.26158 42.2368 7.28622C47.1247 9.31087 51.3025 12.7395 54.2418 17.1385C57.1812 21.5375 58.75 26.7093 58.75 32C58.7421 39.0921 55.9212 45.8915 50.9063 50.9063C45.8915 55.9212 39.0921 58.7421 32 58.75V58.75Z" fill="black"/>
<path d="M32 7.3999C27.1346 7.3999 22.3785 8.84267 18.333 11.5458C14.2876 14.2488 11.1345 18.0908 9.2726 22.5859C7.41068 27.081 6.92352 32.0272 7.87272 36.7991C8.82191 41.5711 11.1648 45.9544 14.6052 49.3947C18.0456 52.8351 22.4289 55.178 27.2008 56.1272C31.9727 57.0764 36.919 56.5893 41.414 54.7273C45.9091 52.8654 49.7511 49.7124 52.4542 45.6669C55.1573 41.6215 56.6 36.8653 56.6 31.9999C56.5947 25.4772 54.0013 19.2232 49.389 14.6109C44.7768 9.99868 38.5227 7.4052 32 7.3999V7.3999ZM36 44.2599C35.8642 45.2134 35.3889 46.0858 34.6614 46.717C33.9339 47.3481 33.0031 47.6956 32.04 47.6956C31.0769 47.6956 30.1462 47.3481 29.4187 46.717C28.6912 46.0858 28.2159 45.2134 28.08 44.2599V27.6199C28.2159 26.6664 28.6912 25.794 29.4187 25.1628C30.1462 24.5317 31.0769 24.1842 32.04 24.1842C33.0031 24.1842 33.9339 24.5317 34.6614 25.1628C35.3889 25.794 35.8642 26.6664 36 27.6199V44.2599ZM32 21.5099C31.2089 21.5099 30.4356 21.2753 29.7778 20.8358C29.12 20.3963 28.6073 19.7715 28.3045 19.0406C28.0018 18.3097 27.9226 17.5055 28.0769 16.7295C28.2312 15.9536 28.6122 15.2409 29.1716 14.6815C29.731 14.1221 30.4438 13.7411 31.2197 13.5868C31.9956 13.4324 32.7999 13.5116 33.5308 13.8144C34.2617 14.1171 34.8864 14.6298 35.3259 15.2876C35.7654 15.9454 36 16.7188 36 17.5099C36 18.5708 35.5786 19.5882 34.8285 20.3383C34.0783 21.0885 33.0609 21.5099 32 21.5099V21.5099Z" fill="black"/>
</svg>
