<?xml version="1.0" encoding="UTF-8" standalone="no"?> <svg width="64" height="64" viewBox="0 0 64 64" fill="none" xmlns="http://www.w3.org/2000/svg">
<path d="M46.5399 58.75H33.2499V49.34C38.205 49.0203 42.8533 46.8291 46.2531 43.2102C49.6529 39.5913 51.5499 34.8154 51.5599 29.85C51.5599 29.5185 51.4282 29.2005 51.1938 28.9661C50.9594 28.7317 50.6415 28.6 50.3099 28.6C49.9784 28.6 49.6605 28.7317 49.4261 28.9661C49.1916 29.2005 49.0599 29.5185 49.0599 29.85C49.054 34.1551 47.4217 38.299 44.4898 41.4515C41.558 44.6039 37.5433 46.5322 33.2499 46.85V42.85C36.4853 42.5376 39.4892 41.0345 41.6788 38.6324C43.8685 36.2303 45.0877 33.1003 45.0999 29.85V15.85C45.0999 12.3757 43.7198 9.04363 41.263 6.5869C38.8063 4.13017 35.4743 2.75 31.9999 2.75C28.5256 2.75 25.1936 4.13017 22.7368 6.5869C20.2801 9.04363 18.8999 12.3757 18.8999 15.85V29.85C18.9122 33.1003 20.1314 36.2303 22.321 38.6324C24.5107 41.0345 27.5146 42.5376 30.7499 42.85V46.85C26.4566 46.5322 22.4419 44.6039 19.51 41.4515C16.5782 38.299 14.9459 34.1551 14.9399 29.85C14.9399 29.5185 14.8082 29.2005 14.5738 28.9661C14.3394 28.7317 14.0215 28.6 13.6899 28.6C13.3584 28.6 13.0405 28.7317 12.8061 28.9661C12.5716 29.2005 12.4399 29.5185 12.4399 29.85C12.4499 34.8154 14.347 39.5913 17.7468 43.2102C21.1466 46.8291 25.7949 49.0203 30.7499 49.34V58.75H17.4599C17.1284 58.75 16.8105 58.8817 16.5761 59.1161C16.3416 59.3505 16.2099 59.6685 16.2099 60C16.2099 60.3315 16.3416 60.6495 16.5761 60.8839C16.8105 61.1183 17.1284 61.25 17.4599 61.25H46.5399C46.8715 61.25 47.1894 61.1183 47.4238 60.8839C47.6582 60.6495 47.7899 60.3315 47.7899 60C47.7899 59.6685 47.6582 59.3505 47.4238 59.1161C47.1894 58.8817 46.8715 58.75 46.5399 58.75V58.75ZM21.3999 29.85V15.85C21.3999 13.0387 22.5167 10.3426 24.5046 8.35467C26.4925 6.36678 29.1886 5.25 31.9999 5.25C34.8112 5.25 37.5074 6.36678 39.4953 8.35467C41.4832 10.3426 42.5999 13.0387 42.5999 15.85V29.85C42.5999 32.6613 41.4832 35.3574 39.4953 37.3453C37.5074 39.3332 34.8112 40.45 31.9999 40.45C29.1886 40.45 26.4925 39.3332 24.5046 37.3453C22.5167 35.3574 21.3999 32.6613 21.3999 29.85V29.85Z" fill="black"/>
</svg>
